<?xml version="1.0" encoding="UTF-8" standalone="no" ?>
<!DOCTYPE svg PUBLIC "-//W3C//DTD SVG 1.1//EN" "http://www.w3.org/Graphics/SVG/1.1/DTD/svg11.dtd">
<svg xmlns="http://www.w3.org/2000/svg" xmlns:xlink="http://www.w3.org/1999/xlink" version="1.1" width="1280" height="1024" viewBox="0 0 1280 1024" xml:space="preserve">
<desc>Created with Fabric.js 5.3.0</desc>
<defs>
</defs>
<g transform="matrix(1 0 0 1 640 512)" id="background-logo"  >
<rect style="stroke: none; stroke-width: 0; stroke-dasharray: none; stroke-linecap: butt; stroke-dashoffset: 0; stroke-linejoin: miter; stroke-miterlimit: 4; fill: rgb(255,255,255); fill-opacity: 0; fill-rule: nonzero; opacity: 1;"  paint-order="stroke"  x="-640" y="-512" rx="0" ry="0" width="1280" height="1024" />
</g>
<g transform="matrix(1.9211538461538462 0 0 1.9211538461538462 355.2561027232961 400.98877141643044)" id="logo-logo"  >
<g style=""  paint-order="stroke"   >
		<g transform="matrix(0.9386408692752684 0 0 0.9386408692752684 0.09370024356968543 0.0006874605726352456)"  >
<linearGradient id="SVGID_1_10_842119" gradientUnits="userSpaceOnUse" gradientTransform="matrix(1 0 0 1 0 0)"  x1="348.4190369" y1="446.948822" x2="247.0954437" y2="395.059906">
<stop offset="0%" style="stop-color:rgb(0,107,30);stop-opacity: 1"/>
<stop offset="100%" style="stop-color:rgb(136,201,45);stop-opacity: 1"/>
</linearGradient>
<path style="stroke: none; stroke-width: 1; stroke-dasharray: none; stroke-linecap: butt; stroke-dashoffset: 0; stroke-linejoin: miter; stroke-miterlimit: 4; fill: url(#SVGID_1_10_842119); fill-rule: nonzero; opacity: 1;"  paint-order="stroke"  transform=" translate(-297.7498116961709, -420.9507446)" d="M 329.6311646 460.225769 L 297.65118409999997 446.2357788 L 270.9411621 434.5557251 C 250.1974029 423.5943909 245.83329769999997 411.9901123 246.730957 399.09655760000004 C 247.2695465 391.36044310000005 253.11938469999998 381.85330200000004 265.68121329999997 381.67572020000006 L 297.65118399999994 395.65582270000004 L 324.3612059999999 407.34576410000005 C 343.87295529999994 417.2010192000001 350.4520567999999 430.68667600000003 348.5690611999999 443.91012570000004 C 347.5513 451.057373 342.9849854 460.225769 329.6311646 460.225769 z" stroke-linecap="round" />
</g>
		<g transform="matrix(0.9386408692752684 0 0 0.9386408692752684 -39.65784910756838 -14.347055624262566)"  >
<path style="stroke: none; stroke-width: 1; stroke-dasharray: none; stroke-linecap: butt; stroke-dashoffset: 0; stroke-linejoin: miter; stroke-miterlimit: 4; fill: rgb(94,153,17); fill-rule: nonzero; opacity: 1;"  paint-order="stroke"  transform=" translate(-255.39969606373472, -405.665086842616)" d="M 270.9411621 434.5557251 C 245.4411774 423.7556763 240.32118219999998 409.7556763 239.87116999999998 397.23577880000005 C 239.54121389999997 388.03570560000003 245.54121389999997 373.96575930000006 255.60121149999998 377.2656860000001 L 265.68121329999997 381.67572020000006 C 235.7412262 392.68573 251.9212189 424.5056763 270.9411621 434.5557251 z" stroke-linecap="round" />
</g>
		<g transform="matrix(0.9386408692752684 0 0 0.9386408692752684 39.66126391911496 14.292756094283277)"  >
<path style="stroke: none; stroke-width: 1; stroke-dasharray: none; stroke-linecap: butt; stroke-dashoffset: 0; stroke-linejoin: miter; stroke-miterlimit: 4; fill: rgb(2,91,19); fill-rule: nonzero; opacity: 1;"  paint-order="stroke"  transform=" translate(-339.903914474687, -436.1770884568849)" d="M 339.6911621 464.6257935 L 329.6311645 460.2257691 C 359.5512084 449.2057496 343.3811645 417.395813 324.36120600000004 407.34576419999996 C 349.86120600000004 418.145813 354.9812011 432.145813 355.4312133 444.66583259999993 C 355.7611694 453.8657837 350.8012085 467.4657593 339.6911621 464.6257935 z" stroke-linecap="round" />
</g>
		<g transform="matrix(0.9386408692752684 0 0 0.9386408692752684 9.748231422632728 -45.21136423931847)"  >
<linearGradient id="SVGID_2_11_842120" gradientUnits="userSpaceOnUse" gradientTransform="matrix(1 0 0 1 0 0)"  x1="390.1522522" y1="372.7831726" x2="211.6262054" y2="372.7831726">
<stop offset="37.87879%" style="stop-color:rgb(55,233,247);stop-opacity: 1"/>
<stop offset="46.52711%" style="stop-color:rgb(50,221,240);stop-opacity: 1"/>
<stop offset="62.17127%" style="stop-color:rgb(37,189,223);stop-opacity: 1"/>
<stop offset="82.82827999999999%" style="stop-color:rgb(17,138,195);stop-opacity: 1"/>
</linearGradient>
<path style="stroke: none; stroke-width: 1; stroke-dasharray: none; stroke-linecap: butt; stroke-dashoffset: 0; stroke-linejoin: miter; stroke-miterlimit: 4; fill: url(#SVGID_2_11_842120); fill-rule: nonzero; opacity: 1;"  paint-order="stroke"  transform=" translate(-308.03546140000003, -372.78317255)" d="M 369.3399658 369.7269897 C 362.2308655 377.4423217 352.13571160000004 381.8431701 341.5858154 381.853302 L 341.4494018 381.853302 C 322.6737976 381.853302 306.07592769999997 377.6697082 292.6460571 374.2844238 C 276.42706300000003 370.7172851 264.0127563 372.4705505 255.6051788 377.27056880000004 C 252.6006164 377.92886350000003 248.4387512 375.29495230000003 246.730957 373.96105950000003 C 248.8984985 372.45031730000005 254.69067379999998 368.18966670000003 257.2927856 367.1336974 C 262.8910827 364.85494980000004 269.3786621 363.7130431 276.507965 363.7130431 C 281.9597167 363.7130431 287.7854003 364.3800048 293.87884510000004 365.7239684 L 293.95971670000006 365.7391662 C 307.03591910000006 369.0385131 323.38623040000004 373.1564025 341.4443358000001 373.1564025 C 355.6573792 373.1564026 359.4213562 372.7831726 369.3399658 369.7269897 z" stroke-linecap="round" />
</g>
		<g transform="matrix(0.9386408692752684 0 0 0.9386408692752684 -42.553224826966584 -15.666691801018601)"  >
<linearGradient id="SVGID_3_12_842121" gradientUnits="userSpaceOnUse" gradientTransform="matrix(1 0 0 1 0 0)"  x1="252.3150482" y1="334.220459" x2="252.3150482" y2="420.7948303">
<stop offset="0%" style="stop-color:rgb(60,165,43);stop-opacity: 1"/>
<stop offset="100%" style="stop-color:rgb(55,192,215);stop-opacity: 1"/>
</linearGradient>
<path style="stroke: none; stroke-width: 1; stroke-dasharray: none; stroke-linecap: butt; stroke-dashoffset: 0; stroke-linejoin: miter; stroke-miterlimit: 4; fill: url(#SVGID_3_12_842121); fill-rule: nonzero; opacity: 1;"  paint-order="stroke"  transform=" translate(-252.31504908726782, -404.2591858)" d="M 270.9399719 434.557312 L 255.34748839999997 427.74127200000004 C 231.18611139999996 413.68078620000006 232.41882319999996 396.30172730000004 235.03605649999997 388.2478333 C 237.09756469999996 381.9168702 242.15261839999997 376.1235962 250.12814329999998 373.9610596 C 251.83593749999997 375.2949524 253.6548614 376.4115906 255.55972289999997 377.2503357 C 255.57489009999998 377.2553711 255.58999629999997 377.2655029 255.60517879999998 377.2705689 C 234.510437 389.2857056 238.5778351 420.3998108 270.9399719 434.557312 z" stroke-linecap="round" />
</g>
		<g transform="matrix(0.9386408692752684 0 0 0.9386408692752684 11.886193799852663 -67.33029538686367)"  >
<linearGradient id="SVGID_4_13_842122" gradientUnits="userSpaceOnUse" gradientTransform="matrix(1 0 0 1 0 0)"  x1="390.1522522" y1="349.2183228" x2="211.6262054" y2="349.2183228">
<stop offset="0%" style="stop-color:rgb(65,210,229);stop-opacity: 1"/>
<stop offset="19.0642%" style="stop-color:rgb(58,197,219);stop-opacity: 1"/>
<stop offset="54.283840000000005%" style="stop-color:rgb(40,163,193);stop-opacity: 1"/>
<stop offset="100%" style="stop-color:rgb(11,110,153);stop-opacity: 1"/>
</linearGradient>
<path style="stroke: none; stroke-width: 1; stroke-dasharray: none; stroke-linecap: butt; stroke-dashoffset: 0; stroke-linejoin: miter; stroke-miterlimit: 4; fill: url(#SVGID_4_13_842122); fill-rule: nonzero; opacity: 1;"  paint-order="stroke"  transform=" translate(-310.31318278120375, -349.2183227)" d="M 388.8632507 322.3130493 C 385.4830932 342.0132751 379.8847351 357.19140619999996 370.5525207 368.3526611 C 370.1584167 368.82254029999996 369.7593078 369.2823486 369.3399658 369.7269897 C 362.2611999 374.2793884 355.6573791 376.1235961 341.4443359 376.1235961 C 323.3862304 376.1235961 307.0359192 372.0056762 293.9597168 368.7063293 L 293.8788452 368.6911621 C 287.7854004 367.347168 281.9597168 366.6802368 276.5079651 366.6802368 C 269.3786621 366.6802368 262.8910828 367.822113 257.29278569999997 370.1008606 C 254.69067389999998 371.15686039999997 252.29566959999997 372.45031739999996 250.12814339999997 373.9610596 C 241.66372689999997 376.1235962 237.74737559999997 364.0368042 234.75433359999997 356.8235474 C 231.76127629999996 349.6102906 230.76161199999996 340.5865174 232.92396559999997 334.0200196 C 287.1942444 304.022522 329.2371521 366.1395874 388.8632507 322.3130493 z" stroke-linecap="round" />
</g>
		<g transform="matrix(0.9386408692752684 0 0 0.9386408692752684 -61.225051735003376 -37.61074490900529)"  >
<linearGradient id="SVGID_5_14_842123" gradientUnits="userSpaceOnUse" gradientTransform="matrix(1 0 0 1 0 0)"  x1="232.4226379" y1="334.220459" x2="232.4226379" y2="420.7948303">
<stop offset="0%" style="stop-color:rgb(69,167,57);stop-opacity: 1"/>
<stop offset="85.36099%" style="stop-color:rgb(37,137,129);stop-opacity: 1"/>
<stop offset="100%" style="stop-color:rgb(31,132,142);stop-opacity: 1"/>
</linearGradient>
<path style="stroke: none; stroke-width: 1; stroke-dasharray: none; stroke-linecap: butt; stroke-dashoffset: 0; stroke-linejoin: miter; stroke-miterlimit: 4; fill: url(#SVGID_5_14_842123); fill-rule: nonzero; opacity: 1;"  paint-order="stroke"  transform=" translate(-232.42264133130317, -380.88064579999997)" d="M 255.3474884 427.741272 L 252.9121399 426.67517089999996 C 252.8717499 426.65496829999995 252.8312836 426.639801 252.7908783 426.6195984 C 224.0717468 413.99813839999996 203.1234894 382.9042359 211.2733917 357.87854009999995 C 213.97154229999998 349.57202149999995 219.87803649999998 341.93243409999997 229.7711334 335.85916139999995 C 230.8270569 335.21246339999993 231.8780365 334.59600829999994 232.9239654 334.02001959999996 C 232.4085845 347.62170419999995 239.14878839999997 365.38674929999996 250.12814329999998 373.96105959999994 C 244.4742126 377.88696289999996 240.38165279999998 383.25790409999996 238.32014459999996 389.5888671999999 C 235.7029114 397.6427612 238.3908844 416.0191956 255.3474884 427.741272 z" stroke-linecap="round" />
</g>
		<g transform="matrix(0.9386408692752684 0 0 0.9386408692752684 -9.748188479812882 45.21137855359177)"  >
<linearGradient id="SVGID_6_15_842124" gradientUnits="userSpaceOnUse" gradientTransform="matrix(1 0 0 1 0 0)"  x1="207.404129" y1="469.1168518" x2="386.0756836" y2="469.1168518">
<stop offset="0%" style="stop-color:rgb(65,210,229);stop-opacity: 1"/>
<stop offset="26.73527%" style="stop-color:rgb(44,179,214);stop-opacity: 1"/>
<stop offset="53.10256%" style="stop-color:rgb(29,156,204);stop-opacity: 1"/>
<stop offset="78.02905%" style="stop-color:rgb(20,143,197);stop-opacity: 1"/>
<stop offset="100%" style="stop-color:rgb(17,138,195);stop-opacity: 1"/>
</linearGradient>
<path style="stroke: none; stroke-width: 1; stroke-dasharray: none; stroke-linecap: butt; stroke-dashoffset: 0; stroke-linejoin: miter; stroke-miterlimit: 4; fill: url(#SVGID_6_15_842124); fill-rule: nonzero; opacity: 1;"  paint-order="stroke"  transform=" translate(-287.26455685, -469.11686710000004)" d="M 225.9600525 472.1730347 C 233.06913759999998 464.4577027 243.1642914 460.0568543 253.7141876 460.0467224 L 253.8506164 460.0467224 C 272.6262206 460.0467224 289.2240905 464.23034670000004 302.6539611 467.6156006 C 318.8729552 471.1827698 331.2872314 469.4295044 339.6948241 464.6294861 C 342.69937120000003 463.97116090000003 346.861267 466.6051026 348.5690612 467.9389954 C 346.4015197 469.4497376 340.6093139 473.7103882 338.00720210000003 474.7663575 C 332.408905 477.0451051 325.92135620000005 478.18701180000005 318.7920227 478.18701180000005 C 313.3403015 478.18701180000005 307.51458740000004 477.52005010000005 301.4211426 476.1760560000001 L 301.3403015 476.16088880000007 C 288.26406860000003 472.8615419000001 271.9137573 468.7436220000001 253.8556671 468.7436220000001 C 239.6426086 468.7436218 235.8786469 469.1168518 225.9600525 472.1730347 z" stroke-linecap="round" />
</g>
		<g transform="matrix(0.9386408692752684 0 0 0.9386408692752684 42.55326408115792 15.666720429565089)"  >
<linearGradient id="SVGID_7_16_842125" gradientUnits="userSpaceOnUse" gradientTransform="matrix(1 0 0 1 0 0)"  x1="369.8990173" y1="498.2678833" x2="335.9580383" y2="416.7662659">
<stop offset="0%" style="stop-color:rgb(86,172,64);stop-opacity: 1"/>
<stop offset="99.49495%" style="stop-color:rgb(45,163,193);stop-opacity: 1"/>
</linearGradient>
<path style="stroke: none; stroke-width: 1; stroke-dasharray: none; stroke-linecap: butt; stroke-dashoffset: 0; stroke-linejoin: miter; stroke-miterlimit: 4; fill: url(#SVGID_7_16_842125); fill-rule: nonzero; opacity: 1;"  paint-order="stroke"  transform=" translate(-342.9849652329774, -437.64086910000003)" d="M 324.3600464 407.3427429 L 339.9525452 414.1587524 C 364.1138916 428.2192688 362.88119509999996 445.5983276 360.2639466 453.6522216 C 358.2024232 459.98318470000004 353.1474 465.77645870000003 345.1718751 467.93899530000004 C 343.4640809 466.60510250000004 341.6451417 465.48843380000005 339.7402955 464.64971920000005 C 339.7251283 464.6446533000001 339.7099915 464.63455200000004 339.6948243 464.62948600000004 C 360.7895813 452.6143494 356.7221985 421.5002136 324.3600464 407.3427429 z" stroke-linecap="round" />
</g>
		<g transform="matrix(0.9386408692752684 0 0 0.9386408692752684 -11.886179825671888 67.3302953868637)"  >
<linearGradient id="SVGID_8_17_842126" gradientUnits="userSpaceOnUse" gradientTransform="matrix(1 0 0 1 0 0)"  x1="207.404129" y1="492.6817017" x2="386.0756836" y2="492.6817017">
<stop offset="0%" style="stop-color:rgb(54,184,209);stop-opacity: 1"/>
<stop offset="4.41664%" style="stop-color:rgb(51,178,204);stop-opacity: 1"/>
<stop offset="32.41919%" style="stop-color:rgb(35,141,175);stop-opacity: 1"/>
<stop offset="58.54623%" style="stop-color:rgb(23,115,154);stop-opacity: 1"/>
<stop offset="81.85719%" style="stop-color:rgb(16,99,141);stop-opacity: 1"/>
<stop offset="100%" style="stop-color:rgb(14,93,137);stop-opacity: 1"/>
</linearGradient>
<path style="stroke: none; stroke-width: 1; stroke-dasharray: none; stroke-linecap: butt; stroke-dashoffset: 0; stroke-linejoin: miter; stroke-miterlimit: 4; fill: url(#SVGID_8_17_842126); fill-rule: nonzero; opacity: 1;"  paint-order="stroke"  transform=" translate(-284.9868046064719, -492.6817017)" d="M 206.4367218 519.5869751 C 209.8169098 499.8867493 215.41526789999998 484.70861820000005 224.74746699999997 473.54736330000003 C 225.14158629999997 473.07748410000005 225.54069509999997 472.61767580000003 225.96005239999997 472.1730347 C 233.03878779999997 467.620636 239.64260859999996 465.7764283 253.85566699999995 465.7764283 C 271.91375719999996 465.7764283 288.26406849999995 469.8943482 301.34030139999993 473.1936951 L 301.4211424999999 473.2088623 C 307.5145872999999 474.5528564 313.34030139999993 475.2198181 318.79202259999994 475.2198181 C 325.9213560999999 475.2198181 332.4089048999999 474.0779114 338.00720199999995 471.7991943 C 340.60931379999994 470.7431945 343.0043332999999 469.4497375 345.1718749 467.9389953 C 354.8072509 466.1633605 357.5526122 477.8632507 360.5456542 485.0765075 C 363.5387267 492.2897643 364.538391 501.313568 362.3760375 507.8800658 C 308.1057434 537.8775024 266.0628357 475.760437 206.4367218 519.5869751 z" stroke-linecap="round" />
</g>
		<g transform="matrix(0.9386408692752684 0 0 0.9386408692752684 61.22509517145738 37.61077363141584)"  >
<linearGradient id="SVGID_9_18_842127" gradientUnits="userSpaceOnUse" gradientTransform="matrix(1 0 0 1 0 0)"  x1="362.8773804" y1="507.7254028" x2="362.8773804" y2="415.6461792">
<stop offset="0%" style="stop-color:rgb(14,115,52);stop-opacity: 1"/>
<stop offset="21.938399999999998%" style="stop-color:rgb(16,116,71);stop-opacity: 1"/>
<stop offset="66.11669%" style="stop-color:rgb(22,120,120);stop-opacity: 1"/>
<stop offset="100%" style="stop-color:rgb(27,123,161);stop-opacity: 1"/>
</linearGradient>
<path style="stroke: none; stroke-width: 1; stroke-dasharray: none; stroke-linecap: butt; stroke-dashoffset: 0; stroke-linejoin: miter; stroke-miterlimit: 4; fill: url(#SVGID_9_18_842127); fill-rule: nonzero; opacity: 1;"  paint-order="stroke"  transform=" translate(-362.87737744460014, -461.01940920000004)" d="M 339.9525452 414.1587524 L 342.3878785 415.22485350000005 C 342.4282838 415.24505610000006 342.4687501 415.26022340000003 342.5091248 415.28042600000003 C 371.2282715 427.9019165 392.1765137 458.99584960000004 384.0266114 484.02151490000006 C 381.32846079999996 492.32803350000006 375.42196659999996 499.96762090000004 365.5288697 506.04089360000006 C 364.4729615 506.68762210000006 363.42196659999996 507.3040467000001 362.3760377 507.88006600000006 C 362.8914186 494.2783509000001 356.15121469999997 476.51330570000005 345.17187509999997 467.93899540000007 C 350.82580579999996 464.01309210000005 354.91836559999996 458.64215090000005 356.9798585 452.3111878000001 C 359.5971069 444.2572632 356.9091187 425.8808594 339.9525452 414.1587524 z" stroke-linecap="round" />
</g>
</g>
</g>
<g transform="matrix(1.9211538461538462 0 0 1.9211538461538462 645.984230824673 420.99247280741633)" id="tagline-ace35b1c-57eb-45a3-b564-8b851eb537a9-logo"  >
<g style=""  paint-order="stroke"   >
		<g transform="matrix(1 0 0 1 0 0)" id="tagline-ace35b1c-57eb-45a3-b564-8b851eb537a9-logo-path-0"  >
<path style="stroke: none; stroke-width: 0; stroke-dasharray: none; stroke-linecap: butt; stroke-dashoffset: 0; stroke-linejoin: miter; stroke-miterlimit: 4; fill: rgb(0,107,30); fill-rule: nonzero; opacity: 1;"  paint-order="stroke"  transform=" translate(-65.24, 78.765)" d="M 7.55 -16.78 Q 4.2 -23.7 4.2 -31.99 Q 4.2 -40.27 6.08 -48.14 Q 7.97 -56.01 12.17 -63.14 L 12.17 -63.14 Q 21.61 -79.29 38.6 -85.37 L 38.6 -85.37 Q 25.38 -96.28 25.38 -110.12 L 25.38 -110.12 Q 25.38 -119.56 31.04 -128.48 Q 36.71 -137.39 45.83 -144.32 Q 54.96 -151.24 66.6 -155.54 Q 78.24 -159.84 88.73 -159.84 Q 99.22 -159.84 106.03 -157.11 Q 112.85 -154.38 117.47 -149.77 L 117.47 -149.77 Q 126.28 -140.96 126.28 -127.12 L 126.28 -127.12 Q 126.28 -108.66 111.38 -95.23 L 111.38 -95.23 Q 106.56 -91.04 100.27 -88.31 L 100.27 -88.31 Q 114.53 -73.21 114.53 -54.33 L 114.53 -54.33 Q 114.53 -43.21 109.39 -33.04 Q 104.25 -22.86 95.23 -15.1 L 95.23 -15.1 Q 75.72 2.31 48.66 2.31 L 48.66 2.31 Q 16.99 2.31 7.55 -16.78 L 7.55 -16.78 Z M 35.45 -44.05 L 35.45 -44.05 Q 35.45 -38.6 39.75 -34.51 Q 44.05 -30.42 53.17 -30.42 Q 62.3 -30.42 67.65 -32.2 Q 73 -33.98 76.35 -36.92 L 76.35 -36.92 Q 82.23 -41.95 82.23 -51.71 Q 82.23 -61.46 77.61 -65.87 Q 73 -70.27 67.33 -70.27 Q 61.67 -70.27 56.11 -67.96 Q 50.55 -65.66 45.94 -61.88 L 45.94 -61.88 Q 35.45 -53.28 35.45 -44.05 Z M 63.56 -119.14 Q 59.15 -114.32 59.15 -108.24 Q 59.15 -102.15 62.19 -98.48 Q 65.24 -94.81 69.85 -94.81 Q 74.47 -94.81 78.35 -96.7 Q 82.23 -98.59 85.37 -101.42 Q 88.52 -104.25 90.51 -107.82 Q 92.5 -111.38 92.5 -114.32 Q 92.5 -117.26 91.14 -119.25 Q 89.78 -121.24 87.68 -122.5 L 87.68 -122.5 Q 83.48 -124.81 78.14 -124.81 Q 72.79 -124.81 69.33 -123.23 Q 65.87 -121.66 63.56 -119.14 L 63.56 -119.14 Z" stroke-linecap="round" />
</g>
</g>
</g>
<g transform="matrix(1.9211538461538462 0 0 1.9211538461538462 849.5304696903539 423.3717560630456)" id="text-logo"  >
<g style=""  paint-order="stroke"   >
		<g transform="matrix(1 0 0 1 0 0)" id="text-logo-path-0"  >
<path style="stroke: none; stroke-width: 0; stroke-dasharray: none; stroke-linecap: butt; stroke-dashoffset: 0; stroke-linejoin: miter; stroke-miterlimit: 4; fill: rgb(27,123,161); fill-rule: nonzero; opacity: 1;"  paint-order="stroke"  transform=" translate(-56.48, 77.47500000000001)" d="M 14.28 -31.07 L 4.83 -50.6 Q 32.75 -136.26 38.63 -153.06 L 38.63 -153.06 Q 56.06 -153.06 73.07 -155.37 L 73.07 -155.37 Q 60.89 -124.93 45.14 -74.12 L 45.14 -74.12 Q 44.72 -71.39 44.09 -69.08 L 44.09 -69.08 L 59.42 -69.08 Q 59.63 -70.55 60.26 -73.91 Q 60.89 -77.27 61.73 -81.78 Q 62.57 -86.29 63.41 -91.54 L 63.41 -91.54 Q 66.14 -106.66 70.76 -129.97 L 70.76 -129.97 Q 88.39 -132.7 107.5 -134.38 L 107.5 -134.38 Q 107.29 -132.28 106.35 -127.13 Q 105.4 -121.99 104.25 -115.48 Q 103.09 -108.97 101.83 -101.73 Q 100.57 -94.48 99.31 -87.97 Q 98.05 -81.46 97.21 -76.32 Q 96.37 -71.18 95.95 -69.08 L 95.95 -69.08 L 108.13 -69.08 L 99.31 -34.64 L 88.39 -34.64 L 86.5 -6.51 L 46.82 0.42 L 51.23 -34.01 L 14.28 -31.07 Z" stroke-linecap="round" />
</g>
</g>
</g>
</svg>